<svg xmlns="http://www.w3.org/2000/svg" xmlns:xlink="http://www.w3.org/1999/xlink" width="64" zoomAndPan="magnify" viewBox="0 0 48 48" height="64" preserveAspectRatio="xMidYMid meet" version="1.0"><defs><g/><clipPath id="c78a70de5e"><path d="M 0.488281 0 L 47.507812 0 L 47.507812 47.019531 L 0.488281 47.019531 Z M 0.488281 0 " clip-rule="nonzero"/></clipPath><clipPath id="2d993e2503"><path d="M 24 0 C 11.015625 0 0.488281 10.527344 0.488281 23.511719 C 0.488281 36.496094 11.015625 47.019531 24 47.019531 C 36.984375 47.019531 47.511719 36.496094 47.511719 23.511719 C 47.511719 10.527344 36.984375 0 24 0 Z M 24 0 " clip-rule="nonzero"/></clipPath></defs><g clip-path="url(#c78a70de5e)"><g clip-path="url(#2d993e2503)"><path fill="#ffffff" d="M 0.488281 0 L 47.511719 0 L 47.511719 47.019531 L 0.488281 47.019531 Z M 0.488281 0 " fill-opacity="1" fill-rule="nonzero"/></g></g><g fill="#000000" fill-opacity="1"><g transform="translate(14.460458, 33.09375)"><g><path d="M 6.46875 -9.4375 C 6.5 -7.175781 6.960938 -5.429688 7.859375 -4.203125 C 8.703125 -3.015625 9.859375 -2.421875 11.328125 -2.421875 C 12.378906 -2.421875 13.207031 -2.515625 13.8125 -2.703125 C 14.414062 -2.898438 15.207031 -3.332031 16.1875 -4 L 16.609375 -4.28125 L 17.109375 -4.078125 C 17.441406 -3.929688 17.722656 -3.707031 17.953125 -3.40625 C 18.179688 -3.113281 18.320312 -2.773438 18.375 -2.390625 L 18.421875 -1.96875 L 18.109375 -1.625 C 17.648438 -1.101562 17.148438 -0.644531 16.609375 -0.25 C 16.066406 0.144531 15.503906 0.484375 14.921875 0.765625 C 14.347656 1.046875 13.753906 1.257812 13.140625 1.40625 C 12.523438 1.550781 11.882812 1.625 11.21875 1.625 C 7.976562 1.625 5.378906 0.59375 3.421875 -1.46875 C 1.472656 -3.5 0.488281 -6.222656 0.46875 -9.640625 C 0.488281 -13.148438 1.515625 -15.898438 3.546875 -17.890625 C 5.578125 -19.890625 8.066406 -20.890625 11.015625 -20.890625 C 13.503906 -20.890625 15.421875 -20.023438 16.765625 -18.296875 C 18.046875 -16.660156 18.6875 -14.46875 18.6875 -11.71875 C 18.6875 -11.25 18.675781 -10.875 18.65625 -10.59375 L 18.609375 -10.203125 L 18.265625 -9.9375 L 17.71875 -9.515625 L 17.5 -9.328125 L 17.140625 -9.328125 Z M 10.984375 -17.296875 C 10.054688 -17.296875 9.179688 -16.847656 8.359375 -15.953125 C 7.691406 -15.234375 7.191406 -14.257812 6.859375 -13.03125 L 13.09375 -13.375 C 13.019531 -14.8125 12.828125 -15.835938 12.515625 -16.453125 C 12.367188 -16.765625 12.1875 -16.984375 11.96875 -17.109375 C 11.75 -17.234375 11.421875 -17.296875 10.984375 -17.296875 Z M 10.984375 -17.296875 "/></g></g></g></svg>