<svg xmlns="http://www.w3.org/2000/svg" xmlns:xlink="http://www.w3.org/1999/xlink" width="64" zoomAndPan="magnify" viewBox="0 0 48 48" height="64" preserveAspectRatio="xMidYMid meet" version="1.0"><defs><g/><clipPath id="cafcec9908"><path d="M 0.488281 0 L 47.507812 0 L 47.507812 47.019531 L 0.488281 47.019531 Z M 0.488281 0 " clip-rule="nonzero"/></clipPath><clipPath id="dad49ddf10"><path d="M 24 0 C 11.015625 0 0.488281 10.527344 0.488281 23.511719 C 0.488281 36.496094 11.015625 47.019531 24 47.019531 C 36.984375 47.019531 47.511719 36.496094 47.511719 23.511719 C 47.511719 10.527344 36.984375 0 24 0 Z M 24 0 " clip-rule="nonzero"/></clipPath></defs><g clip-path="url(#cafcec9908)"><g clip-path="url(#dad49ddf10)"><path fill="#ffffff" d="M 0.488281 0 L 47.511719 0 L 47.511719 47.019531 L 0.488281 47.019531 Z M 0.488281 0 " fill-opacity="1" fill-rule="nonzero"/></g></g><g fill="#000000" fill-opacity="1"><g transform="translate(11.378188, 36.367348)"><g><path d="M 4.546875 -25.734375 L 1.46875 -26.234375 L 1.46875 -28.625 L 22 -28.625 L 22.5 -22.15625 L 19.8125 -22.15625 L 18.53125 -25.96875 L 10.203125 -26.3125 L 10.203125 -15.953125 L 15.5625 -16.0625 L 16.1875 -19.234375 L 18.65625 -19.234375 L 18.65625 -9.90625 L 16.1875 -9.90625 L 15.5625 -13.21875 L 10.203125 -13.328125 L 10.203125 -2.46875 L 19.53125 -2.921875 L 21.765625 -7.859375 L 24.65625 -7.046875 L 23.65625 0 L 1.5 0 L 1.5 -2.3125 L 4.546875 -2.703125 Z M 4.546875 -25.734375 "/></g></g></g></svg>